<svg fill="none" height="67" viewBox="0 0 66 67" width="66" xmlns="http://www.w3.org/2000/svg"><path d="m40.5394 13.5554c-.7412-1.2321-2.3441-1.6342-3.547-.8465-8.5387 5.5915-15.7137 13.0293-20.9945 21.7636-.7439 1.2305-.2844 2.8179.9735 3.5143l19.305 10.6875c1.258.6965 2.8354.236 3.6105-.9752 2.9224-4.5668 6.7239-8.5076 11.1827-11.5924 1.1825-.8181 1.5859-2.411.8447-3.6431z" fill="rgb(248,113,160)"/><path clip-rule="evenodd" d="m14.8842 33.7988c5.3816-8.9011 12.6936-16.481 21.3953-22.1792 1.8481-1.2101 4.2709-.572 5.3757 1.2645l11.3749 18.9082c1.1219 1.865.4841 4.206-1.2196 5.3847-4.3169 2.9866-7.9975 6.802-10.8269 11.2236-1.1166 1.745-3.4332 2.4666-5.3374 1.4124l-19.305-10.6875c-1.8751-1.0381-2.5999-3.4363-1.457-5.3267zm22.1085-21.0901c1.2029-.7878 2.8058-.3856 3.547.8465l11.3749 18.9081c.7412 1.2321.3378 2.8251-.8447 3.6432-4.4588 3.0847-8.2604 7.0255-11.1828 11.5924-.775 1.2112-2.3524 1.6716-3.6104.9752l-19.305-10.6875c-1.258-.6964-1.7175-2.2838-.9735-3.5143 5.2807-8.7343 12.4557-16.1722 20.9945-21.7636z" fill="#fff" fill-rule="evenodd"/></svg>